# xmcd
#
# Track frame offsets:
#	150
#	14159
#	27060
#	37710
#	50965
#	63022
#	74563
#	85276
#	95557
#	106943
#	119924
#	136860
#	154520
#	171097
#	192684
#	210650
#
# Disc length: 3113 seconds
#
# Revision: 1
# Processed by: cddbd v1.5.2PL0 Copyright (c) Steve Scherf et al.
# Submitted via: audiograbber 1.82.02
#
DISCID=e40c2710
DTITLE=Junior Wells - Great Blues Masters Vol.10
DYEAR=2006
DGENRE=Blues
TTITLE0=Hoodoo Man
TTITLE1=Cut That Out
TTITLE2=Eagle Rock
TTITLE3=Blues Hit Big Town
TTITLE4=Two Headed Woman
TTITLE5=Little by Little
TTITLE6=Come On in This Hoyse
TTITLE7=Messin' with the Kid
TTITLE8=Universal Rock
TTITLE9=Snatch It Back and Hold It
TTITLE10=In the Wee Wee Hour
TTITLE11=Good Morning Schoolgirl
TTITLE12=We're Ready
TTITLE13=I Just Want to Make Love to You
TTITLE14=Watch Me Move
TTITLE15=The Train I Ride
EXTD=
EXTT0=
EXTT1=
EXTT2=
EXTT3=
EXTT4=
EXTT5=
EXTT6=
EXTT7=
EXTT8=
EXTT9=
EXTT10=
EXTT11=
EXTT12=
EXTT13=
EXTT14=
EXTT15=
PLAYORDER=
